Coordinates
version=1
nRows=19
nColumns=34
inDegrees=yes

Units are S.I. units (second, meters, Newtons, ...)
If the header above contains a line with 'inDegrees', this indicates whether rotational values are in degrees (yes) or radians (no).

endheader
time	pelvis_tilt	pelvis_list	pelvis_rotation	pelvis_tx	pelvis_ty	pelvis_tz	hip_flexion_r	hip_adduction_r	hip_rotation_r	knee_angle_r	ankle_angle_r	subtalar_angle_r	mtp_angle_r	hip_flexion_l	hip_adduction_l	hip_rotation_l	knee_angle_l	ankle_angle_l	subtalar_angle_l	mtp_angle_l	lumbar_extension	lumbar_bending	lumbar_rotation	arm_flex_r	arm_add_r	arm_rot_r	elbow_flex_r	pro_sup_r	arm_flex_l	arm_add_l	arm_rot_l	elbow_flex_l	pro_sup_l
      0.90000000	     -2.57127890	      3.57835648	     -0.08343800	     -1.14192162	      0.92392143	     -0.27528480	     25.98066850	     -0.93530407	     -0.07720816	    -53.80630850	      0.53146924	     -6.26521916	     20.14131242	      5.86972912	      7.39440816	      0.81602670	    -16.02414801	     10.34326490	     -0.00688201	      5.18098961	     -3.64879556	     -3.06045220	     -1.39531628	     -4.46396612	    -16.77789537	     10.98072227	     22.31029805	     90.00000000	      0.30354240	    -16.89296808	     24.55649877	     24.97936192	     90.00000000
      0.91000000	     -2.67381393	      3.35252087	      0.04085725	     -1.12944405	      0.92414883	     -0.27540418	     26.62970794	     -0.86799997	     -0.45549348	    -50.96046241	      1.01973829	     -6.72304725	     20.08031690	      4.53405577	      7.15909446	      1.07866949	    -14.95135938	     10.61495482	      0.19619317	      5.26320613	     -3.46435065	     -2.73105246	     -1.88647768	     -4.84764019	    -16.78200683	     10.62178639	     21.77711722	     90.00000000	      0.84001708	    -17.04773693	     24.44422268	     25.71944217	     90.00000000
      0.92000000	     -2.45770549	      3.07537785	      0.20124350	     -1.11727343	      0.92462318	     -0.27536934	     26.81938621	     -0.76470124	     -0.99417749	    -47.81264965	      1.05851099	     -7.48247627	     19.80756533	      2.99882961	      6.82026610	      1.08644977	    -14.12614484	     10.92952653	      0.46393722	      5.37086491	     -3.74217604	     -2.38404332	     -2.42745103	     -4.98467490	    -16.67830217	     10.11257699	     20.98693006	     90.00000000	      1.39012562	    -17.34752208	     24.43947672	     26.89821829	     90.00000000
      0.93000000	     -2.23900203	      2.87676605	      0.31987193	     -1.10484015	      0.92492470	     -0.27522941	     26.86752878	     -0.67563352	     -1.38275276	    -44.39279162	      0.79139741	     -8.37429195	     19.38417120	      1.34888999	      6.56169078	      1.13482726	    -13.11722428	     11.25402282	      0.68517625	      5.46307717	     -3.99989499	     -2.13139866	     -2.89031356	     -5.26400801	    -16.63147608	      9.71997849	     20.42652875	     90.00000000	      1.94791354	    -17.68332958	     24.24140872	     28.03973056	     90.00000000
      0.94000000	     -2.01551830	      2.71295681	      0.46725372	     -1.09243050	      0.92498496	     -0.27510837	     26.77431609	     -0.63672292	     -1.77364041	    -40.74042673	      0.85661529	     -8.84317390	     19.07669173	     -0.25626946	      6.32463213	      1.16434762	    -12.19056726	     11.48865072	      1.02413514	      5.50704648	     -4.27049760	     -1.90798048	     -3.34659988	     -5.52722693	    -16.56618851	      9.29965457	     19.86107109	     90.00000000	      2.47878263	    -18.00023041	     24.13509712	     29.23618974	     90.00000000
      0.95000000	     -1.77332022	      2.56663216	      0.57759029	     -1.08002993	      0.92485311	     -0.27493574	     26.58916812	     -0.59020931	     -2.07497233	    -36.96933593	      0.72099952	     -9.05790398	     18.63327391	     -1.84843981	      6.09854332	      1.04473542	    -11.30363011	     11.70858209	      1.52775218	      5.58264437	     -4.58863074	     -1.70269434	     -3.76198547	     -5.75045241	    -16.52387958	      8.90912217	     19.32160616	     90.00000000	      2.98577609	    -18.31602513	     23.90776216	     30.39878526	     90.00000000
      0.96000000	     -1.69316336	      2.53441475	      0.70280278	     -1.06768878	      0.92423448	     -0.27475465	     26.52792470	     -0.65978665	     -2.37843688	    -33.10370187	      0.56522613	     -8.92569803	     18.30070584	     -3.22907185	      5.99927678	      0.89932744	    -10.48294290	     11.87847132	      1.93291626	      5.70695453	     -4.73843221	     -1.62458750	     -4.18301322	     -5.92742520	    -16.41796692	      8.49731268	     18.66568744	     90.00000000	      3.52683676	    -18.61458170	     23.83477712	     31.36064543	     90.00000000
      0.97000000	     -1.55707858	      2.47340005	      0.85987396	     -1.05510298	      0.92353903	     -0.27457112	     26.27589173	     -0.70639910	     -2.81899454	    -29.12407648	      0.44844144	     -8.49441717	     18.02509643	     -4.66192395	      5.86393387	      0.78765442	     -9.69043094	     11.97376478	      2.17054194	      5.78547775	     -4.92264539	     -1.52751818	     -4.52439303	     -6.21721160	    -16.33515799	      8.17089484	     18.20840163	     90.00000000	      4.13165001	    -18.84013081	     23.49561298	     32.32890684	     90.00000000
      0.98000000	     -1.32862358	      2.46611000	      0.95103311	     -1.04250496	      0.92281265	     -0.27418240	     25.86720103	     -0.75457362	     -3.10374965	    -25.16231852	      0.43495246	     -7.57249540	     17.70387439	     -6.15265528	      5.77084918	      0.65881165	     -9.00381393	     11.95743537	      2.61211829	      5.88466819	     -5.22701909	     -1.50653588	     -4.86387915	     -6.38438058	    -16.24305729	      7.75670150	     17.64497107	     90.00000000	      4.63357117	    -19.15092738	     23.18006392	     33.34436502	     90.00000000
      0.99000000	     -1.59433329	      2.57102696	      1.10004686	     -1.03006834	      0.92124245	     -0.27379655	     25.96161503	     -0.87845122	     -3.22683090	    -21.25708907	      0.30556898	     -6.73114433	     17.56867005	     -7.01900791	      5.80796120	      0.70454172	     -8.46758824	     12.02302079	      2.82897374	      5.93250078	     -4.95902499	     -1.60485603	     -5.17178473	     -6.75562222	    -16.15989414	      7.62379064	     17.45318279	     90.00000000	      5.18956214	    -19.38597560	     23.01311253	     34.02033724	     90.00000000
      1.00000000	     -0.99077808	      2.45756666	      1.31990272	     -1.01711295	      0.92085426	     -0.27351545	     25.03028576	     -0.89608298	     -4.15979256	    -17.46395843	      0.38577948	     -4.80348196	     17.12633537	     -8.84158190	      5.55143378	      0.64308855	     -7.93093388	     12.03479579	      3.23474228	      6.10643200	     -5.70712477	     -1.44207811	     -5.63131046	     -6.67217674	    -16.01672795	      7.31427847	     16.47118821	     90.00000000	      5.64729227	    -19.67710156	     22.67420713	     35.16372614	     90.00000000
      1.01000000	     -1.00515926	      2.48051999	      1.38565561	     -1.00429545	      0.91946626	     -0.27289096	     24.82063777	     -0.88302376	     -4.51560478	    -13.95781894	      0.31518154	     -3.30427122	     16.71781152	     -9.92515222	      5.47580546	      0.60966385	     -7.53393011	     12.05213151	      3.39636197	      6.24501824	     -5.71186319	     -1.46072651	     -5.88691266	     -6.84318967	    -15.91067653	      7.22728601	     16.00561312	     90.00000000	      6.06263095	    -19.91516596	     22.45313310	     35.97061073	     90.00000000
      1.02000000	     -0.57700637	      2.46044734	      1.58064982	     -0.99117842	      0.91867669	     -0.27249152	     24.21081566	     -0.91923272	     -5.53492980	    -10.99124072	      0.62768225	     -1.22424238	     16.12911570	    -11.43258351	      5.29253363	      0.72743958	     -7.25792229	     12.01526606	      3.82493442	      6.52646803	     -6.25385780	     -1.39671006	     -6.29120718	     -6.84570881	    -15.79223261	      7.19609250	     15.33691321	     90.00000000	      6.44771347	    -20.08777168	     21.82806362	     36.85102066	     90.00000000
      1.03000000	     -0.49352969	      2.45203864	      1.67490275	     -0.97806058	      0.91728688	     -0.27175593	     24.04753096	     -0.85778518	     -6.17552689	     -8.51078885	      0.78188715	      0.51582723	     15.34782847	    -12.46094636	      5.13603738	      0.77206279	     -7.16741800	     11.95271142	      4.16277346	      6.82732020	     -6.34723878	     -1.38333347	     -6.54882051	     -6.92442374	    -15.69276785	      7.32395728	     14.77467979	     90.00000000	      6.79612232	    -20.27572734	     21.47583888	     37.59445648	     90.00000000
      1.04000000	     -0.40985614	      2.41912084	      1.84330122	     -0.96483065	      0.91591029	     -0.27123971	     24.01558425	     -0.79492517	     -6.96456531	     -6.78864910	      1.56997587	      2.24683794	     12.19057906	    -13.36280906	      4.95028160	      0.96254501	     -7.32573777	     11.77854073	      4.28667600	      8.20682086	     -6.42724290	     -1.32361709	     -6.94371750	     -6.86660214	    -15.60806064	      7.92202136	     14.03510398	     90.00000000	      6.99536527	    -20.37948060	     20.79188581	     38.28958206	     90.00000000
      1.05000000	     -0.54469565	      2.46081036	      1.81246102	     -0.95161341	      0.91418615	     -0.27028947	     24.23387713	     -0.65906308	     -7.13121395	     -5.46700158	      1.46166391	      2.89648978	     12.13279112	    -13.97067402	      4.88645388	      1.10033475	     -7.58774252	     11.65859352	      4.43206363	      8.29645594	     -6.25004567	     -1.35715525	     -7.02657084	     -7.09171563	    -15.54458367	      7.84284631	     13.95664900	     90.00000000	      7.30932559	    -20.47252913	     20.55348425	     38.72245057	     90.00000000
      1.06000000	     -0.19518983	      2.29353810	      1.95343237	     -0.93794977	      0.91334642	     -0.26946115	     24.05276393	     -0.43787010	     -8.11626645	     -4.99732600	      1.81030052	      4.74774057	     11.93371300	    -15.01523451	      4.52957131	      1.26418709	     -8.02304650	     11.48453646	      4.58734581	      9.01570781	     -6.60439357	     -1.13538202	     -7.37490765	     -6.96687146	    -15.45396719	      7.92914070	     13.31132372	     90.00000000	      7.36808269	    -20.53765709	     19.74389169	     39.49539304	     90.00000000
      1.07000000	     -0.27010609	      2.22663298	      1.99502235	     -0.92424679	      0.91180034	     -0.26848158	     24.15317535	     -0.20514360	     -7.98143877	     -4.69401914	      1.83749202	      5.00850551	     11.91075111	    -15.49360140	      4.32805588	      1.41591092	     -8.66648111	     11.31466136	      4.64719313	      9.10708859	     -6.43656356	     -1.03844533	     -7.50112626	     -7.20793854	    -15.40971164	      7.87846003	     13.28644298	     90.00000000	      7.51685237	    -20.59486656	     19.53109654	     39.88293336	     90.00000000
      1.08000000	     -0.08648050	      2.05381653	      2.00781505	     -0.91020851	      0.91078955	     -0.26746106	     23.98523684	      0.11997596	     -8.12150802	     -4.94854955	      1.74408279	      5.52659273	     11.85131568	    -16.17629507	      4.00477698	      1.41786679	     -9.47667369	     10.99940326	      4.82106340	      9.45637826	     -6.50243047	     -0.79788353	     -7.66852175	     -7.05382998	    -15.23030036	      7.81774429	     12.46345432	     90.00000000	      7.44550103	    -20.60962354	     19.03562728	     40.43013709	     90.00000000
